# xmcd
#
# Track frame offsets: 
#        150
#        14087
#        28631
#        42987
#        57966
#        71505
#        85367
#        99732
#        113958
#        127726
#        141571
#        153010
#        164553
#        177392
#        189494
#        201808
#        213702
#        226303
#        239962
#        254586
#
# Disc length: 3569 seconds
#
# Revision: 1
# Processed by: cddbd v1.5.2PL0 Copyright (c) Steve Scherf et al.
# Submitted via: ExactAudioCopyFreeDBPlugin 1.0
#
DISCID=2f0def14
DTITLE=Ma Rainey - Black Cat Hoot Owl
DYEAR=2004
DGENRE=Blues
TTITLE0=Bad luck blues
TTITLE1=Daddy goodbye blues
TTITLE2=See see rider
TTITLE3=Sleep talking blues
TTITLE4=Yonder come the blues
TTITLE5=Ma and Pa poorhouse blues
TTITLE6=Jealous hearted blues
TTITLE7=Trust no man
TTITLE8=Toad frog blues
TTITLE9=Farewell Daddy blues
TTITLE10=Black cat hoot owl
TTITLE11=Morning hour blues
TTITLE12=Don't fish in my sea
TTITLE13=Mountain Jack blues No.1
TTITLE14=Mountain Jack blues No.3
TTITLE15=Shave 'em dry
TTITLE16=Big feeling blues
TTITLE17=Little low Mama
TTITLE18=Black eye blues
TTITLE19=Night time blues
EXTD=YEAR: 2004
EXTT0=
EXTT1=
EXTT2=
EXTT3=
EXTT4=
EXTT5=
EXTT6=
EXTT7=
EXTT8=
EXTT9=
EXTT10=
EXTT11=
EXTT12=
EXTT13=
EXTT14=
EXTT15=
EXTT16=
EXTT17=
EXTT18=
EXTT19=
PLAYORDER=
